<svg xmlns="http://www.w3.org/2000/svg" version="1.1" xmlns:xlink="http://www.w3.org/1999/xlink" xmlns:svgjs="http://svgjs.dev/svgjs" viewBox="0 0 800 800"><defs><linearGradient x1="50%" y1="0%" x2="50%" y2="100%" id="wwwhirl-grad"><stop stop-color="#a21caf" stop-opacity="1" offset="45%"></stop><stop stop-color="#1d4ed8" stop-opacity="1" offset="100%"></stop></linearGradient></defs><g stroke-width="1" stroke="url(#wwwhirl-grad)" fill="none" stroke-linecap="round"><path d="M4 423.51789947509764C92 387.43789947509765 91.99999999999994 294.5978994750976 268 315.2778994750977C444.0000000000001 335.95789947509763 356 467.95789947509763 532 485.55789947509766C708.0000000000001 503.1578994750976 708.0000000000001 407.23789947509766 796 368.07789947509764 " transform="rotate(107.25, 400, 400)"></path><path d="M16 422.8052404785156C101.33333333333337 387.818573811849 101.33333333333326 297.7919071451823 272 317.8452404785156C442.66666666666674 337.89857381184896 357.33333333333326 465.8985738118489 528 482.9652404785156C698.6666666666666 500.03190714518223 698.6666666666666 407.01857381184897 784 369.0452404785156 " transform="rotate(104, 400, 400)"></path><path d="M28 422.09255859375C110.66666666666669 388.19922526041665 110.66666666666663 300.98589192708334 276 320.41255859375C441.33333333333337 339.8392252604167 358.66666666666663 463.83922526041664 524 480.37255859375C689.3333333333334 496.9058919270833 689.3333333333334 406.7992252604167 772 370.01255859375 " transform="rotate(100.75, 400, 400)"></path><path d="M40 421.37989959716793C120 388.579899597168 119.99999999999994 304.17989959716795 280 322.97989959716796C440 341.77989959716797 360 461.77989959716797 520 477.77989959716797C680 493.7798995971679 680 406.579899597168 760 370.97989959716796 " transform="rotate(97.5, 400, 400)"></path><path d="M52 420.667255859375C129.33333333333337 388.9605891927083 129.33333333333326 307.37392252604167 284 325.547255859375C438.66666666666674 343.7205891927083 361.33333333333326 459.7205891927083 516 475.187255859375C670.6666666666666 490.65392252604164 670.6666666666666 406.36058919270835 748 371.947255859375 " transform="rotate(94.25, 400, 400)"></path><path d="M64 419.9545739746094C138.66666666666669 389.34124064127604 138.66666666666663 310.56790730794273 288 328.11457397460936C437.33333333333337 345.66124064127604 362.66666666666663 457.66124064127604 512 472.5945739746094C661.3333333333334 487.52790730794266 661.3333333333334 406.14124064127606 736 372.91457397460937 " transform="rotate(91, 400, 400)"></path><path d="M76 419.2419226074219C148 389.7219226074219 147.99999999999994 313.76192260742187 292 330.6819226074219C436 347.6019226074219 363.99999999999994 455.60192260742184 508 470.0019226074219C652 484.40192260742185 652 405.9219226074219 724 373.88192260742187 " transform="rotate(87.75, 400, 400)"></path><path d="M88 418.52924072265625C157.33333333333337 390.1025740559896 157.33333333333331 316.95590738932293 296 333.2492407226563C434.66666666666674 349.5425740559896 365.33333333333326 453.5425740559896 504 467.40924072265625C642.6666666666666 481.2759073893229 642.6666666666666 405.7025740559896 712 374.84924072265625 " transform="rotate(84.5, 400, 400)"></path><path d="M100 417.8165969848633C166.66666666666669 390.48326365152997 166.66666666666663 320.1499303181966 300 335.8165969848633C433.33333333333337 351.48326365152997 366.66666666666663 451.4832636515299 500 464.8165969848633C633.3333333333334 478.1499303181966 633.3333333333334 405.48326365152997 700 375.8165969848633 " transform="rotate(81.25, 400, 400)"></path><path d="M112 417.10391510009765C176 390.86391510009764 175.99999999999994 323.34391510009766 304 338.3839151000976C432 353.42391510009764 367.99999999999994 449.42391510009764 496 462.22391510009766C624 475.0239151000976 624 405.2639151000977 688 376.78391510009766 " transform="rotate(78, 400, 400)"></path><path d="M124 416.3912599182129C185.33333333333337 391.24459325154623 185.33333333333331 326.53792658487953 308 340.9512599182129C430.66666666666674 355.36459325154624 369.33333333333326 447.36459325154624 492 459.6312599182129C614.6666666666667 471.89792658487954 614.6666666666667 405.04459325154625 676 377.7512599182129 " transform="rotate(74.75, 400, 400)"></path><path d="M136 415.67860092163085C194.66666666666669 391.62526758829756 194.66666666666663 329.7319342549642 312 343.5186009216309C429.33333333333337 357.3052675882975 370.66666666666663 445.3052675882975 488 457.03860092163086C605.3333333333333 468.7719342549642 605.3333333333333 404.82526758829755 664 378.71860092163087 " transform="rotate(71.5, 400, 400)"></path><path d="M148 414.96593811035154C204 392.00593811035156 203.99999999999997 332.9259381103516 316 346.08593811035155C428.00000000000006 359.2459381103516 371.99999999999994 443.2459381103516 484 454.44593811035156C596 465.64593811035155 596 404.60593811035153 652 379.6859381103516 " transform="rotate(68.25, 400, 400)"></path><path d="M160 414.25326385498045C213.33333333333334 392.3865971883138 213.33333333333331 336.1199305216471 320 348.6532638549805C426.66666666666674 361.1865971883138 373.3333333333333 441.1865971883138 480 451.85326385498047C586.6666666666667 462.5199305216471 586.6666666666667 404.3865971883138 640 380.6532638549805 " transform="rotate(65, 400, 400)"></path><path d="M172 413.54061248779294C222.66666666666669 392.76727915445963 222.66666666666663 339.3139458211263 324 351.22061248779295C425.33333333333337 363.12727915445964 374.66666666666663 439.12727915445964 476 449.26061248779297C577.3333333333334 459.3939458211263 577.3333333333334 404.1672791544596 628 381.620612487793 " transform="rotate(61.75, 400, 400)"></path><path d="M184 412.8279420471191C232 393.14794204711916 231.99999999999997 342.5079420471192 328 353.78794204711915C424.00000000000006 365.0679420471191 376 437.0679420471191 472 446.66794204711914C568 456.2679420471191 568 403.9479420471191 616 382.58794204711916 " transform="rotate(58.5, 400, 400)"></path><path d="M196 412.11527923583986C241.33333333333334 393.52861256917316 241.33333333333331 345.7019459025065 332 356.3552792358398C422.66666666666674 367.0086125691732 377.3333333333333 435.0086125691732 468 444.07527923583984C558.6666666666667 453.1419459025065 558.6666666666667 403.7286125691732 604 383.55527923583986 " transform="rotate(55.25, 400, 400)"></path><path d="M208 411.4026126098633C250.66666666666669 393.90927927652996 250.66666666666663 348.8959459431966 336 358.9226126098633C421.33333333333337 368.94927927653 378.66666666666663 432.9492792765299 464 441.4826126098633C549.3333333333333 450.0159459431966 549.3333333333333 403.5092792765299 592 384.5226126098633 " transform="rotate(52, 400, 400)"></path><path d="M220 410.6899574279785C260 394.2899574279785 260 352.0899574279785 340 361.48995742797854C420 370.8899574279785 380 430.8899574279785 460 438.8899574279785C540 446.8899574279785 540 403.2899574279785 580 385.48995742797854 " transform="rotate(48.75, 400, 400)"></path><path d="M232 409.9772946166992C269.33333333333337 394.67062795003255 269.3333333333333 355.2839612833659 344 364.0572946166992C418.6666666666667 372.8306279500325 381.3333333333333 428.8306279500325 456 436.2972946166992C530.6666666666667 443.76396128336586 530.6666666666667 403.07062795003253 568 386.4572946166992 " transform="rotate(45.5, 400, 400)"></path><path d="M244 409.2646203613281C278.6666666666667 395.0512870279948 278.66666666666663 358.47795369466144 348 366.62462036132814C417.33333333333337 374.7712870279948 382.66666666666663 426.7712870279948 452 433.7046203613281C521.3333333333333 440.63795369466146 521.3333333333333 402.8512870279948 556 387.42462036132815 " transform="rotate(42.25, 400, 400)"></path><path d="M256 408.5519613647461C288 395.4319613647461 288 361.6719613647461 352 369.1919613647461C416 376.7119613647461 384 424.71196136474606 448 431.1119613647461C512 437.51196136474607 512 402.6319613647461 544 388.39196136474607 " transform="rotate(39, 400, 400)"></path><path d="M268 407.83930236816406C297.33333333333337 395.8126357014974 297.3333333333333 364.86596903483075 356 371.7593023681641C414.6666666666667 378.6526357014974 385.3333333333333 422.6526357014974 444 428.51930236816406C502.66666666666663 434.38596903483074 502.66666666666663 402.4126357014974 532 389.3593023681641 " transform="rotate(35.75, 400, 400)"></path><path d="M280 407.1266357421875C306.6666666666667 396.19330240885415 306.66666666666663 368.0599690755208 360 374.3266357421875C413.33333333333337 380.5933024088542 386.66666666666663 420.59330240885413 440 425.9266357421875C493.33333333333337 431.2599690755208 493.33333333333337 402.19330240885415 520 390.3266357421875 " transform="rotate(32.5, 400, 400)"></path><path d="M292 406.4139748382568C316 396.57397483825685 316 371.25397483825685 364 376.89397483825684C412 382.5339748382568 388 418.5339748382568 436 423.33397483825684C484 428.13397483825685 484 401.9739748382568 508 391.2939748382568 " transform="rotate(29.25, 400, 400)"></path><path d="M304 405.7013063049316C325.33333333333337 396.954639638265 325.3333333333333 374.4479729715983 368 379.46130630493167C410.6666666666667 384.474639638265 389.3333333333333 416.474639638265 432 420.74130630493164C474.66666666666663 425.0079729715983 474.66666666666663 401.75463963826496 496 392.2613063049316 " transform="rotate(26, 400, 400)"></path><path d="M316 404.98864730834964C334.6666666666667 397.3353139750163 334.66666666666663 377.64198064168295 372 382.0286473083496C409.33333333333337 386.41531397501626 390.66666666666663 414.41531397501626 428 418.1486473083496C465.33333333333337 421.88198064168296 465.33333333333337 401.53531397501627 484 393.2286473083496 " transform="rotate(22.75, 400, 400)"></path><path d="M328 404.2759825897217C344 397.7159825897217 344 380.83598258972165 376 384.5959825897217C408 388.3559825897217 392 412.3559825897217 424 415.5559825897217C456 418.75598258972167 456 401.31598258972167 472 394.19598258972167 " transform="rotate(19.5, 400, 400)"></path><path d="M340 403.5633197784424C353.33333333333337 398.0966531117757 353.3333333333333 384.02998644510905 380 387.16331977844237C406.6666666666667 390.2966531117757 393.3333333333333 410.2966531117757 420 412.9633197784424C446.6666666666667 415.629986445109 446.6666666666667 401.0966531117757 460 395.16331977844237 " transform="rotate(16.25, 400, 400)"></path><path d="M352 402.85065505981447C362.66666666666663 398.47732172648114 362.66666666666663 387.2239883931478 384 389.73065505981447C405.33333333333337 392.2373217264811 394.66666666666663 408.2373217264811 416 410.37065505981445C437.3333333333333 412.5039883931478 437.3333333333333 400.8773217264811 448 396.13065505981444 " transform="rotate(13, 400, 400)"></path><path d="M364 402.13799224853517C372 398.85799224853514 372 390.41799224853514 388 392.29799224853514C404 394.17799224853513 396 406.17799224853513 412 407.77799224853516C428 409.3779922485352 428 400.65799224853515 436 397.09799224853515 " transform="rotate(9.75, 400, 400)"></path><path d="M376 401.42532752990724C381.33333333333337 399.23866086324057 381.33333333333337 393.6119941965739 392 394.86532752990723C402.6666666666667 396.11866086324056 397.3333333333333 404.11866086324056 408 405.1853275299072C418.66666666666663 406.2519941965739 418.66666666666663 400.43866086324056 424 398.0653275299072 " transform="rotate(6.5, 400, 400)"></path><path d="M388 400.71266471862793C390.66666666666663 399.6193313852946 390.66666666666663 396.8059980519613 396 397.43266471862796C401.33333333333337 398.0593313852946 398.66666666666663 402.0593313852946 404 402.59266471862793C409.33333333333337 403.12599805196123 409.33333333333337 400.2193313852946 412 399.0326647186279 " transform="rotate(3.25, 400, 400)"></path></g></svg>